<svg xmlns="http://www.w3.org/2000/svg" viewBox="0 0 162.16 30.45"><defs><style>.cls-1{opacity:0.85;}.cls-2{fill:#0a3063;}</style></defs><title>kite_enterprise_dark@vector</title><g id="Layer_2" data-name="Layer 2"><g id="Layer_1-2" data-name="Layer 1"><text class="cls-1"></text><path class="cls-2" d="M49.7,8.59v2.14H42.52v3.56H49v2H42.52v3.6h7.41V22H40.25V8.59Z"/><path class="cls-2" d="M62.92,8.59H65.2V22H62.73l-7.62-9.82V22H52.84V8.59h2.27l7.82,10Z"/><path class="cls-2" d="M74,10.66V22H71.74V10.66H67.66V8.59H78.09v2.08Z"/><path class="cls-2" d="M90,8.59v2.14H82.83v3.56h6.45v2H82.83v3.6h7.41V22H80.56V8.59Z"/><path class="cls-2" d="M103.89,13q0,3.33-2.91,4.2L104.51,22h-2.89L98.4,17.52h-3V22H93.15V8.59h5a7.25,7.25,0,0,1,4.41,1A4,4,0,0,1,103.89,13Zm-3,1.91a2.4,2.4,0,0,0,.69-1.92,2,2,0,0,0-.71-1.81,4.73,4.73,0,0,0-2.54-.49H95.42v4.81h2.83A4.16,4.16,0,0,0,100.87,14.86Z"/><path class="cls-2" d="M116.25,9.76a4.45,4.45,0,0,1,1.41,3.62A4.29,4.29,0,0,1,116.22,17a7,7,0,0,1-4.4,1.14h-2.39V22h-2.27V8.59h4.62A6.91,6.91,0,0,1,116.25,9.76Zm-1.61,5.55a3,3,0,0,0,.68-2.12,2.19,2.19,0,0,0-.87-2,5,5,0,0,0-2.71-.58h-2.31V16h2.64A3.51,3.51,0,0,0,114.64,15.31Z"/><path class="cls-2" d="M131.07,13q0,3.33-2.91,4.2L131.69,22H128.8l-3.21-4.52h-3V22h-2.27V8.59h5a7.25,7.25,0,0,1,4.41,1A4,4,0,0,1,131.07,13Zm-3,1.91a2.4,2.4,0,0,0,.69-1.92,2,2,0,0,0-.71-1.81,4.73,4.73,0,0,0-2.54-.49H122.6v4.81h2.83A4.16,4.16,0,0,0,128,14.86Z"/><path class="cls-2" d="M134.34,8.59h2.27V22h-2.27Z"/><path class="cls-2" d="M144.42,10.36a3,3,0,0,0-1.63.4,1.35,1.35,0,0,0-.64,1.22,1.42,1.42,0,0,0,.64,1.25,9.58,9.58,0,0,0,2.7.93,7.44,7.44,0,0,1,3.12,1.41,3.32,3.32,0,0,1,1,2.67,3.53,3.53,0,0,1-1.33,2.86,5.29,5.29,0,0,1-3.48,1.1,8.18,8.18,0,0,1-5.6-2.18l1.42-1.71a6.41,6.41,0,0,0,4.24,1.77,2.88,2.88,0,0,0,1.74-.47,1.47,1.47,0,0,0,.64-1.25,1.41,1.41,0,0,0-.61-1.21,6.35,6.35,0,0,0-2.09-.79,18.87,18.87,0,0,1-2.25-.65,5,5,0,0,1-1.37-.78,3.25,3.25,0,0,1-1.19-2.77,3.37,3.37,0,0,1,1.36-2.88,5.47,5.47,0,0,1,3.36-1,8.09,8.09,0,0,1,2.56.42,6.71,6.71,0,0,1,2.19,1.19L148,11.59a4.57,4.57,0,0,0-1.62-.88A6.24,6.24,0,0,0,144.42,10.36Z"/><path class="cls-2" d="M161.93,8.59v2.14h-7.18v3.56h6.45v2h-6.45v3.6h7.41V22h-9.68V8.59Z"/><polygon class="cls-2" points="12.6 12.88 7.9 21.74 18.09 30.45 21.47 17.41 12.6 12.88"/><polygon class="cls-2" points="8.49 0 0 15 5.91 20.05 11.66 9.9 22.12 14.88 24.05 7.42 8.49 0"/></g></g></svg>