<?xml version="1.0" encoding="utf-8"?>
<!-- Generator: Adobe Illustrator 21.0.2, SVG Export Plug-In . SVG Version: 6.00 Build 0)  -->
<svg version="1.1" id="Layer_1" xmlns="http://www.w3.org/2000/svg" xmlns:xlink="http://www.w3.org/1999/xlink" x="0px" y="0px"
	 viewBox="0 0 723.2 261.8" style="enable-background:new 0 0 723.2 261.8;" xml:space="preserve">
<title>Asset 1</title>
<g id="Layer_2">
	<g id="Layer_1-2">
		<path d="M618.8,90.3c-11.6-0.2-22.8,4.5-30.8,13c-8.2,8.4-12.8,19.7-12.5,31.5c-0.2,11.8,4.3,23.1,12.5,31.5
			c16.6,17,43.8,17.3,60.8,0.7c0.3-0.2,0.5-0.5,0.7-0.7c8.2-8.4,12.8-19.7,12.5-31.5c0.2-11.8-4.3-23.1-12.5-31.5
			C641.6,94.8,630.5,90.1,618.8,90.3z"/>
		<path d="M381,98.4c-5.3-3.5-13.5-5.3-24.7-5.3h-21v49.1h24c11.5,0,19.3-2.2,23.4-6.6s6.2-10.8,6.2-19.3
			C388.9,107.9,386.3,101.9,381,98.4z"/>
		<path d="M511.2,114.1c0-8-2.2-13.5-6.5-16.5s-12-4.5-23.1-4.5h-26.3V137H481c11.7,0,19.6-1.8,23.9-5.4
			C509.1,127.9,511.2,122.1,511.2,114.1z"/>
		<path d="M673.2,32.3H313.1c-27.6,0.1-49.9,22.4-50,50v108.2c0.1,27.6,22.4,49.9,50,50h360.1c27.6-0.1,49.9-22.4,50-50V82.3
			C723.1,54.7,700.8,32.4,673.2,32.3z M397.1,150.6C388.4,157.6,375,161,357,161h-21.7v36h-20.7V74.4h42.1
			c18.6,0,32.2,3.6,40.7,10.7c8.5,7.1,12.8,18.1,12.8,33C410.1,132.9,405.8,143.8,397.1,150.6z M511.7,196.9l-29.3-41.2h-27.2v41.2
			h-20.7V74.4h45.6c18.7,0,32.1,3.2,40.2,9.5s12.1,16.4,12.1,30.3c0,20.2-8.8,33-26.5,38.2l32.1,44.5L511.7,196.9z M664.8,180
			c-12.4,12.1-27.7,18.1-46,18.1c-18.2,0-33.6-6.1-45.9-18.1c-12.4-12.1-18.6-27.2-18.6-45.2s6.2-33.2,18.6-45.2s27.7-18.2,46-18.2
			s33.6,6.1,46,18.2s18.6,27.2,18.6,45.2S677.2,167.9,664.8,180z"/>
		<polygon points="105.6,103.4 63.3,183.1 155.6,261.8 185.9,144.4 		"/>
		<polygon points="73,0 0,129 56,176.8 102.7,94.2 188.4,135.1 206.8,63.8 		"/>
	</g>
</g>
</svg>
